<svg width="22" height="21" viewBox="0 0 22 21" fill="none" xmlns="http://www.w3.org/2000/svg">
<path d="M8.47891 19.4715C8.94835 19.4715 9.32891 19.0909 9.32891 18.6215C9.32891 18.152 8.94835 17.7715 8.47891 17.7715C8.00946 17.7715 7.62891 18.152 7.62891 18.6215C7.62891 19.0909 8.00946 19.4715 8.47891 19.4715Z" stroke="white" stroke-width="2" stroke-linecap="round" stroke-linejoin="round"/>
<path d="M17.8305 19.4715C18.2999 19.4715 18.6805 19.0909 18.6805 18.6215C18.6805 18.152 18.2999 17.7715 17.8305 17.7715C17.361 17.7715 16.9805 18.152 16.9805 18.6215C16.9805 19.0909 17.361 19.4715 17.8305 19.4715Z" stroke="white" stroke-width="2" stroke-linecap="round" stroke-linejoin="round"/>
<path d="M1.67969 1.62158H5.07969L7.35769 13.0031C7.43542 13.3944 7.64831 13.7459 7.9591 13.9961C8.26989 14.2463 8.65878 14.3792 9.05769 14.3716H17.3197C17.7186 14.3792 18.1075 14.2463 18.4183 13.9961C18.7291 13.7459 18.942 13.3944 19.0197 13.0031L20.3797 5.87158H5.92969" stroke="white" stroke-width="2" stroke-linecap="round" stroke-linejoin="round"/>
</svg>
