<svg width="12" height="23" viewBox="0 0 12 23" fill="none" xmlns="http://www.w3.org/2000/svg">
<path d="M6.89844 0.171875V3.74609H5.14062V0.171875H6.89844ZM6.6875 19.3086V22.4375H4.94141V19.3086H6.6875ZM9.03125 15.6055C9.03125 15.1367 8.92578 14.7148 8.71484 14.3398C8.50391 13.9648 8.15625 13.6211 7.67188 13.3086C7.1875 12.9961 6.53906 12.707 5.72656 12.4414C4.74219 12.1367 3.89062 11.7656 3.17188 11.3281C2.46094 10.8906 1.91016 10.3477 1.51953 9.69922C1.13672 9.05078 0.945312 8.26562 0.945312 7.34375C0.945312 6.38281 1.15234 5.55469 1.56641 4.85938C1.98047 4.16406 2.56641 3.62891 3.32422 3.25391C4.08203 2.87891 4.97266 2.69141 5.99609 2.69141C6.79297 2.69141 7.50391 2.8125 8.12891 3.05469C8.75391 3.28906 9.28125 3.64062 9.71094 4.10938C10.1484 4.57812 10.4805 5.15234 10.707 5.83203C10.9414 6.51172 11.0586 7.29688 11.0586 8.1875H8.90234C8.90234 7.66406 8.83984 7.18359 8.71484 6.74609C8.58984 6.30859 8.40234 5.92969 8.15234 5.60938C7.90234 5.28125 7.59766 5.03125 7.23828 4.85938C6.87891 4.67969 6.46484 4.58984 5.99609 4.58984C5.33984 4.58984 4.79688 4.70313 4.36719 4.92969C3.94531 5.15625 3.63281 5.47656 3.42969 5.89062C3.22656 6.29688 3.125 6.76953 3.125 7.30859C3.125 7.80859 3.22656 8.24609 3.42969 8.62109C3.63281 8.99609 3.97656 9.33594 4.46094 9.64062C4.95312 9.9375 5.62891 10.2305 6.48828 10.5195C7.49609 10.8398 8.35156 11.2188 9.05469 11.6562C9.75781 12.0859 10.293 12.6172 10.6602 13.25C11.0273 13.875 11.2109 14.6523 11.2109 15.582C11.2109 16.5898 10.9844 17.4414 10.5312 18.1367C10.0781 18.8242 9.44141 19.3477 8.62109 19.707C7.80078 20.0664 6.83984 20.2461 5.73828 20.2461C5.07422 20.2461 4.41797 20.1562 3.76953 19.9766C3.12109 19.7969 2.53516 19.5039 2.01172 19.0977C1.48828 18.6836 1.07031 18.1406 0.757812 17.4688C0.445312 16.7891 0.289062 15.957 0.289062 14.9727H2.46875C2.46875 15.6367 2.5625 16.1875 2.75 16.625C2.94531 17.0547 3.20312 17.3984 3.52344 17.6562C3.84375 17.9062 4.19531 18.0859 4.57812 18.1953C4.96875 18.2969 5.35547 18.3477 5.73828 18.3477C6.44141 18.3477 7.03516 18.2383 7.51953 18.0195C8.01172 17.793 8.38672 17.4727 8.64453 17.0586C8.90234 16.6445 9.03125 16.1602 9.03125 15.6055Z" fill="#B8DDFF"/>
</svg>
