<svg width="29" height="27" viewBox="0 0 29 27" fill="none" xmlns="http://www.w3.org/2000/svg">
<path d="M14.3819 0.0798531C12.4479 0.0798531 10.639 0.43651 8.95526 1.14982C7.24877 1.84152 5.76412 2.7872 4.50132 3.98687C3.23851 5.18653 2.24306 6.59694 1.51496 8.21811C0.7641 9.81766 0.388672 11.5361 0.388672 13.3734C0.388672 15.2107 0.7641 16.9292 1.51496 18.5287C2.24306 20.1499 3.23851 21.5603 4.50132 22.76C5.76412 23.9596 7.24877 24.9053 8.95526 25.597C10.639 26.3103 12.4479 26.667 14.3819 26.667C16.3159 26.667 18.1248 26.3103 19.8085 25.597C21.515 24.9053 22.9997 23.9596 24.2625 22.76C25.5253 21.5603 26.5207 20.1499 27.2488 18.5287C27.9997 16.9292 28.3751 15.2107 28.3751 13.3734C28.3751 11.5361 27.9997 9.81766 27.2488 8.21811C26.5207 6.59694 25.5253 5.18653 24.2625 3.98687C22.9997 2.7872 21.515 1.84152 19.8085 1.14982C18.1248 0.43651 16.3159 0.0798531 14.3819 0.0798531ZM12.9826 23.911C11.5946 23.7381 10.3091 23.349 9.12591 22.7438C7.94274 22.1385 6.90747 21.3658 6.02009 20.4255C5.13272 19.4852 4.43875 18.4098 3.93817 17.1994C3.4376 16.0105 3.18732 14.7352 3.18732 13.3734C3.18732 12.9627 3.21576 12.5574 3.27264 12.1575C3.32953 11.7577 3.40347 11.374 3.49449 11.0065L10.1839 17.3615V18.6909C10.1839 19.4258 10.457 20.0526 11.003 20.5714C11.5491 21.0902 12.209 21.3496 12.9826 21.3496V23.911ZM22.6413 20.539C22.4593 19.9986 22.1237 19.5555 21.6345 19.2096C21.1453 18.8638 20.5935 18.6909 19.9792 18.6909H18.5799V14.7028C18.5799 14.3353 18.4434 14.0219 18.1703 13.7625C17.8973 13.5031 17.5674 13.3734 17.1805 13.3734H8.78461V10.7147H11.5833C11.9701 10.7147 12.3 10.585 12.573 10.3256C12.8461 10.0662 12.9826 9.75282 12.9826 9.38535V6.72664H15.7812C16.5548 6.72664 17.2147 6.46725 17.7608 5.94848C18.3068 5.4297 18.5799 4.80285 18.5799 4.06792V3.51673C19.6038 3.92742 20.548 4.457 21.4126 5.10547C22.2545 5.77555 22.9826 6.5375 23.597 7.39132C24.2113 8.24513 24.7005 9.18 25.0645 10.1959C25.4058 11.2119 25.5765 12.271 25.5765 13.3734C25.5765 14.7568 25.3148 16.0592 24.7915 17.2804C24.2682 18.5017 23.5515 19.5879 22.6413 20.539Z" fill="#B8DDFF"/>
</svg>
