<svg width="63" height="48" viewBox="0 0 63 48" fill="none" xmlns="http://www.w3.org/2000/svg">
<path d="M1.5944 22V6.53649H11.9908V9.70345H5.19819V12.6083H11.6195V15.6006H5.19819V18.8112H12.3839V22H1.5944ZM29.2982 14.2246C29.2982 15.5787 29.0433 16.7509 28.5337 17.741C28.0386 18.7166 27.3761 19.5247 26.5462 20.1653C25.7308 20.7915 24.8062 21.2574 23.7723 21.5632C22.7385 21.8544 21.6902 22 20.6272 22H14.8612V6.53649H20.4525C21.5446 6.53649 22.622 6.66754 23.685 6.92963C24.7479 7.17716 25.6944 7.59942 26.5243 8.19641C27.3543 8.77884 28.0241 9.56512 28.5337 10.5553C29.0433 11.5454 29.2982 12.7685 29.2982 14.2246ZM25.4104 14.2246C25.4104 13.3509 25.2648 12.6302 24.9736 12.0623C24.697 11.4799 24.3184 11.0212 23.8379 10.6863C23.3719 10.3368 22.8332 10.0893 22.2216 9.9437C21.6246 9.7981 21.0058 9.72529 20.3651 9.72529H18.5086V18.7675H20.2778C20.9476 18.7675 21.5882 18.6947 22.1998 18.5491C22.8259 18.3889 23.3719 18.1341 23.8379 17.7847C24.3184 17.4352 24.697 16.9693 24.9736 16.3868C25.2648 15.8044 25.4104 15.0836 25.4104 14.2246ZM44.8799 16.1684C44.8799 17.1003 44.7197 17.9521 44.3994 18.7238C44.0936 19.481 43.6495 20.1362 43.0671 20.6895C42.4847 21.2283 41.7785 21.6505 40.9485 21.9563C40.1331 22.2621 39.2231 22.415 38.2184 22.415C37.1991 22.415 36.2818 22.2621 35.4664 21.9563C34.651 21.6505 33.9594 21.2283 33.3915 20.6895C32.8236 20.1362 32.3868 19.481 32.081 18.7238C31.7752 17.9521 31.6224 17.1003 31.6224 16.1684V6.53649H35.3353V15.8626C35.3353 16.2849 35.3863 16.6853 35.4882 17.0639C35.6047 17.4425 35.7722 17.7847 35.9906 18.0904C36.2235 18.3817 36.522 18.6146 36.8861 18.7894C37.2646 18.9641 37.716 19.0514 38.2402 19.0514C38.7644 19.0514 39.2085 18.9641 39.5725 18.7894C39.9511 18.6146 40.2569 18.3817 40.4898 18.0904C40.7228 17.7847 40.8903 17.4425 40.9922 17.0639C41.0941 16.6853 41.1451 16.2849 41.1451 15.8626V6.53649H44.8799V16.1684Z" fill="#414B54"/>
<path d="M16.2014 36.8923C15.5171 37.6786 14.6725 38.3047 13.6678 38.7706C12.6632 39.222 11.5056 39.4477 10.1951 39.4477C9.00113 39.4477 7.89451 39.2511 6.87526 38.858C5.87057 38.4648 4.99692 37.9115 4.25433 37.1981C3.51173 36.47 2.9293 35.6037 2.50704 34.599C2.08478 33.5943 1.87364 32.4877 1.87364 31.2791C1.87364 30.0415 2.08478 28.9203 2.50704 27.9156C2.94386 26.9109 3.54085 26.0591 4.29801 25.3602C5.05517 24.6467 5.94337 24.1007 6.96262 23.7221C7.98188 23.3435 9.08121 23.1542 10.2606 23.1542C11.3527 23.1542 12.4229 23.3508 13.4713 23.7439C14.5342 24.1225 15.3933 24.6831 16.0485 25.4257L13.515 27.9593C13.1655 27.4788 12.7068 27.122 12.139 26.8891C11.5711 26.6561 10.9887 26.5396 10.3917 26.5396C9.73645 26.5396 9.13218 26.6634 8.57887 26.9109C8.04012 27.1439 7.57418 27.4715 7.18104 27.8937C6.7879 28.316 6.48212 28.8184 6.26371 29.4008C6.0453 29.9687 5.93609 30.5948 5.93609 31.2791C5.93609 31.978 6.0453 32.6187 6.26371 33.2011C6.48212 33.7836 6.78062 34.2859 7.15919 34.7082C7.55234 35.1159 8.01828 35.4362 8.55703 35.6692C9.09577 35.9022 9.68548 36.0186 10.3262 36.0186C11.0688 36.0186 11.7167 35.873 12.27 35.5818C12.8233 35.2906 13.2674 34.912 13.6023 34.4461L16.2014 36.8923ZM28.0299 39.0327L26.8287 35.9968H20.8442L19.7085 39.0327H15.646L22.1328 23.5692H25.7584L32.1797 39.0327H28.0299ZM23.8801 27.6972L21.9144 33.0046H25.8021L23.8801 27.6972ZM38.7746 26.758V39.0327H35.0397V26.758H30.6715V23.5692H43.1428V26.758H38.7746ZM44.2439 39.0327V36.993L48.2651 33.3506C48.5176 33.1078 48.7216 32.8601 48.877 32.6076C49.0324 32.355 49.1101 32.0734 49.1101 31.7625C49.1101 31.3935 48.9935 31.0972 48.7604 30.8738C48.5273 30.6407 48.2165 30.5241 47.828 30.5241C47.42 30.5241 47.0849 30.6698 46.8227 30.9612C46.5702 31.2429 46.4196 31.6169 46.371 32.0831L44.0254 31.7625C44.0836 31.238 44.2245 30.7718 44.4479 30.3639C44.681 29.9559 44.9724 29.6111 45.322 29.3294C45.6717 29.0381 46.0699 28.8195 46.5167 28.6738C46.9732 28.5184 47.454 28.4407 47.9591 28.4407C48.4351 28.4407 48.8964 28.5038 49.3432 28.6301C49.79 28.7564 50.1882 28.9506 50.5379 29.2129C50.8876 29.4751 51.1644 29.8054 51.3684 30.2036C51.5821 30.6018 51.6889 31.0681 51.6889 31.6023C51.6889 31.9714 51.6403 32.3065 51.5432 32.6076C51.4461 32.899 51.3101 33.1709 51.1353 33.4235C50.9701 33.676 50.7759 33.914 50.5525 34.1374C50.3388 34.3511 50.1154 34.5647 49.8823 34.7784L47.4929 36.9056H51.7035V39.0327H44.2439ZM60.1754 37.0221V39.0327H57.888V37.0221H53.0363V34.9678L57.2324 28.7175H60.1608V35.0407H61.5886V37.0221H60.1754ZM57.9026 31.2235H57.8588L55.4112 35.0407H57.9026V31.2235Z" fill="#414B54"/>
</svg>
