<svg width="30" height="24" viewBox="0 0 30 24" fill="none" xmlns="http://www.w3.org/2000/svg">
<path d="M29.7745 6.00684V19.5235C29.7745 20.6163 29.3449 21.6678 28.5736 22.4629C27.8023 23.2579 26.7476 23.7365 25.6252 23.8006L25.3666 23.8077H4.79654C3.67222 23.8078 2.59038 23.3903 1.77236 22.6406C0.954338 21.8909 0.461978 20.8658 0.396018 19.7749L0.388672 19.5235V6.00684L14.2661 14.9994L14.4365 15.0937C14.6374 15.189 14.858 15.2386 15.0816 15.2386C15.3051 15.2386 15.5257 15.189 15.7266 15.0937L15.897 14.9994L29.7745 6.00684Z" fill="#B8DDFF"/>
<path d="M25.369 0.958984C26.9558 0.958984 28.3473 1.77299 29.123 2.99684L15.084 12.0937L1.04492 2.99684C1.41332 2.41529 1.91946 1.92779 2.52113 1.57503C3.12279 1.22227 3.80253 1.01447 4.50363 0.968981L4.79896 0.958984H25.369Z" fill="#B8DDFF"/>
</svg>
