<svg width="43" height="43" viewBox="0 0 43 43" fill="none" xmlns="http://www.w3.org/2000/svg">
<path d="M42.5007 12.7733C42.4772 11.0107 42.1467 9.26556 41.524 7.61604C40.984 6.22467 40.1592 4.96106 39.1023 3.90594C38.0454 2.85082 36.7797 2.0274 35.386 1.48828C33.755 0.87703 32.0319 0.546517 30.2901 0.510814C28.0475 0.41074 27.3365 0.382812 21.6438 0.382812C15.9511 0.382812 15.2214 0.382813 12.9951 0.510814C11.2541 0.54678 9.53182 0.877288 7.90152 1.48828C6.50762 2.02702 5.24171 2.85031 4.18478 3.90548C3.12786 4.96065 2.3032 6.22445 1.76356 7.61604C1.15006 9.24312 0.819719 10.9629 0.786795 12.7012C0.686555 14.9424 0.65625 15.6522 0.65625 21.3354C0.65625 27.0187 0.65625 27.7448 0.786795 29.9697C0.821763 31.7105 1.15046 33.428 1.76356 35.0595C2.3041 36.4506 3.12938 37.7139 4.18666 38.7686C5.24393 39.8234 6.50996 40.6463 7.90385 41.1849C9.52969 41.8207 11.2523 42.1749 12.9975 42.2322C15.2424 42.3323 15.9534 42.3625 21.6461 42.3625C27.3388 42.3625 28.0685 42.3625 30.2947 42.2322C32.0365 42.1979 33.7597 41.8682 35.3907 41.257C36.784 40.7173 38.0494 39.8937 39.1062 38.8386C40.163 37.7836 40.988 36.5203 41.5286 35.1293C42.1417 33.5002 42.4704 31.7826 42.5054 30.0395C42.6056 27.8006 42.6359 27.0908 42.6359 21.4052C42.6313 15.722 42.6313 15.0005 42.5007 12.7733ZM21.6298 32.0829C15.676 32.0829 10.8528 27.2677 10.8528 21.3238C10.8528 15.3799 15.676 10.5647 21.6298 10.5647C24.488 10.5647 27.2292 11.6983 29.2503 13.716C31.2713 15.7337 32.4068 18.4703 32.4068 21.3238C32.4068 24.1773 31.2713 26.9139 29.2503 28.9316C27.2292 30.9493 24.488 32.0829 21.6298 32.0829ZM32.8357 12.6756C32.5056 12.6759 32.1787 12.6112 31.8737 12.4852C31.5686 12.3593 31.2915 12.1745 31.0581 11.9414C30.8247 11.7084 30.6396 11.4317 30.5134 11.1272C30.3872 10.8227 30.3224 10.4963 30.3227 10.1667C30.3227 9.83744 30.3877 9.51135 30.5139 9.20711C30.6401 8.90287 30.8252 8.62642 31.0584 8.39357C31.2917 8.16071 31.5686 7.976 31.8733 7.84998C32.1781 7.72395 32.5047 7.65909 32.8345 7.65909C33.1644 7.65909 33.491 7.72395 33.7958 7.84998C34.1005 7.976 34.3774 8.16071 34.6107 8.39357C34.8439 8.62642 35.0289 8.90287 35.1552 9.20711C35.2814 9.51135 35.3464 9.83744 35.3464 10.1667C35.3464 11.5538 34.2228 12.6756 32.8357 12.6756Z" fill="#414B54"/>
<path d="M21.6298 28.3126C25.496 28.3126 28.6303 25.1836 28.6303 21.3238C28.6303 17.4639 25.496 14.3349 21.6298 14.3349C17.7635 14.3349 14.6293 17.4639 14.6293 21.3238C14.6293 25.1836 17.7635 28.3126 21.6298 28.3126Z" fill="#414B54"/>
</svg>
