<svg width="25" height="25" viewBox="0 0 25 25" fill="none" xmlns="http://www.w3.org/2000/svg">
<g clip-path="url(#clip0_1468_1320)">
<path d="M21.8574 10.8286C21.8574 17.8286 12.8574 23.8286 12.8574 23.8286C12.8574 23.8286 3.85742 17.8286 3.85742 10.8286C3.85742 8.44166 4.80563 6.15248 6.49346 4.46465C8.18129 2.77682 10.4705 1.82861 12.8574 1.82861C15.2444 1.82861 17.5336 2.77682 19.2214 4.46465C20.9092 6.15248 21.8574 8.44166 21.8574 10.8286Z" stroke="#B8DDFF" stroke-width="2" stroke-linecap="round" stroke-linejoin="round"/>
<path d="M12.8574 13.8286C14.5143 13.8286 15.8574 12.4855 15.8574 10.8286C15.8574 9.17176 14.5143 7.82861 12.8574 7.82861C11.2006 7.82861 9.85742 9.17176 9.85742 10.8286C9.85742 12.4855 11.2006 13.8286 12.8574 13.8286Z" stroke="#B8DDFF" stroke-width="2" stroke-linecap="round" stroke-linejoin="round"/>
</g>
<defs>
<clipPath id="clip0_1468_1320">
<rect width="23.3143" height="23.3143" fill="white" transform="translate(0.857422 0.828613)"/>
</clipPath>
</defs>
</svg>
