<svg width="27" height="6" viewBox="0 0 27 6" fill="none" xmlns="http://www.w3.org/2000/svg">
<path fill-rule="evenodd" clip-rule="evenodd" d="M13.3346 5.66732C14.8074 5.66732 16.0013 4.47341 16.0013 3.00065C16.0013 1.52789 14.8074 0.333984 13.3346 0.333984C11.8619 0.333984 10.668 1.52789 10.668 3.00065C10.668 4.47341 11.8619 5.66732 13.3346 5.66732Z" fill="#414B54"/>
<path fill-rule="evenodd" clip-rule="evenodd" d="M24.0007 5.66732C25.4734 5.66732 26.6673 4.47341 26.6673 3.00065C26.6673 1.52789 25.4734 0.333984 24.0007 0.333984C22.5279 0.333984 21.334 1.52789 21.334 3.00065C21.334 4.47341 22.5279 5.66732 24.0007 5.66732Z" fill="#414B54"/>
<path fill-rule="evenodd" clip-rule="evenodd" d="M2.66667 5.66732C4.13943 5.66732 5.33333 4.47341 5.33333 3.00065C5.33333 1.52789 4.13943 0.333984 2.66667 0.333984C1.19391 0.333984 0 1.52789 0 3.00065C0 4.47341 1.19391 5.66732 2.66667 5.66732Z" fill="#414B54"/>
</svg>
