<svg width="14" height="14" viewBox="0 0 14 14" fill="none" xmlns="http://www.w3.org/2000/svg">
<path d="M13.4941 7.09603C13.4941 7.16895 13.4714 7.23275 13.4258 7.28744L10.418 10.0492C10.3359 10.1221 10.2448 10.1403 10.1445 10.1038C10.0443 10.0583 9.99414 9.98079 9.99414 9.87142V8.12142H0.246094C0.173177 8.12142 0.113932 8.09863 0.0683594 8.05306C0.0227865 8.00749 0 7.94824 0 7.87533V6.37142C0 6.2985 0.0227865 6.23926 0.0683594 6.19368C0.113932 6.14811 0.173177 6.12533 0.246094 6.12533H9.99414V4.37533C9.99414 4.26595 10.0443 4.18848 10.1445 4.1429C10.2448 4.10645 10.3359 4.12012 10.418 4.18392L13.4258 6.91829C13.4714 6.97298 13.4941 7.03223 13.4941 7.09603Z" fill="#414B54"/>
</svg>
