<svg width="29" height="29" viewBox="0 0 29 29" fill="none" xmlns="http://www.w3.org/2000/svg">
<path d="M6.01706 13.0348C8.25598 17.4349 11.8631 21.0265 16.2632 23.2809L19.6838 19.8604C20.1036 19.4406 20.7255 19.3006 21.2697 19.4872C23.0111 20.0625 24.8924 20.3734 26.8203 20.3734C27.6755 20.3734 28.3751 21.0731 28.3751 21.9282V27.3545C28.3751 28.2097 27.6755 28.9093 26.8203 28.9093C12.2207 28.9093 0.388672 17.0773 0.388672 2.47766C0.388672 1.62251 1.08833 0.922852 1.94348 0.922852H7.38529C8.24043 0.922852 8.94009 1.62251 8.94009 2.47766C8.94009 4.42116 9.25105 6.28692 9.82633 8.0283C9.99736 8.57248 9.87297 9.17886 9.43763 9.6142L6.01706 13.0348Z" fill="#B8DDFF"/>
</svg>
