<svg width="29" height="36" viewBox="0 0 29 36" fill="none" xmlns="http://www.w3.org/2000/svg">
<path fill-rule="evenodd" clip-rule="evenodd" d="M28.3751 13.7441C28.3751 25.2366 14.3819 35.8452 14.3819 35.8452C14.3819 35.8452 0.388672 25.2366 0.388672 13.7441C0.388672 6.42064 6.65391 0.483398 14.3819 0.483398C22.1099 0.483398 28.3751 6.42064 28.3751 13.7441ZM16.5244 18.9069C15.8453 19.1803 15.1175 19.321 14.3824 19.321C12.898 19.321 11.4743 18.7478 10.4246 17.7276C9.37487 16.7073 8.78516 15.3236 8.78516 13.8807C8.78516 12.4379 9.37487 11.0541 10.4246 10.0338C11.4743 9.0136 12.898 8.44043 14.3824 8.44043C15.1175 8.44043 15.8453 8.58115 16.5244 8.85455C17.2035 9.12795 17.8206 9.52867 18.3403 10.0338C18.8601 10.539 19.2724 11.1388 19.5537 11.7988C19.835 12.4588 19.9797 13.1663 19.9797 13.8807C19.9797 14.5951 19.835 15.3026 19.5537 15.9626C19.2724 16.6226 18.8601 17.2224 18.3403 17.7276C17.8206 18.2327 17.2035 18.6335 16.5244 18.9069Z" fill="#B8DDFF"/>
</svg>
