<svg width="25" height="20" viewBox="0 0 25 20" fill="none" xmlns="http://www.w3.org/2000/svg">
<path d="M5.26635 0L4.31731 1.69076L0 9.21398V9.46865C0 12.1082 2.15673 14.2556 4.80769 14.2556C7.45865 14.2556 9.61538 12.1082 9.61538 9.46865V9.21398L5.56731 2.15797L9.62115 3.67161C9.62115 3.6898 9.61538 3.70608 9.61538 3.72427C9.61538 4.9708 10.4221 6.02393 11.5385 6.4203V18.0852H7.69231V20H13.4615V6.4203C13.9378 6.25042 14.3607 5.9585 14.6875 5.57396L19.2212 7.32982L15.3846 14.0163V14.2709C15.3846 16.9095 17.5413 19.0426 20.1923 19.0426C22.8433 19.0426 25 16.9095 25 14.2709V14.0163L20.1923 5.63906L15.3788 3.78363C15.3788 3.76448 15.3846 3.74533 15.3846 3.72427C15.3846 2.14074 14.0904 0.852082 12.5 0.852082C12.081 0.853683 11.6675 0.946758 11.2885 1.12475C10.9096 1.30273 10.5744 1.56131 10.3067 1.88224L5.26635 0ZM12.5 2.76687C12.7476 2.7779 12.9813 2.88359 13.1526 3.06193C13.3239 3.24027 13.4195 3.47751 13.4195 3.72427C13.4195 3.97103 13.3239 4.20827 13.1526 4.38661C12.9813 4.56495 12.7476 4.67064 12.5 4.68167C12.2524 4.67064 12.0187 4.56495 11.8474 4.38661C11.6761 4.20827 11.5805 3.97103 11.5805 3.72427C11.5805 3.47751 11.6761 3.24027 11.8474 3.06193C12.0187 2.88359 12.2524 2.7779 12.5 2.76687ZM4.80769 4.69698L6.99712 8.51125H2.61827L4.80769 4.69698ZM20.1923 9.49832L22.3731 13.2982H18.0115L20.1923 9.49832ZM2.10192 10.426H7.51346C7.31626 10.9843 6.95028 11.4682 6.46579 11.811C5.9813 12.1539 5.40208 12.339 4.80769 12.3408C3.55577 12.3408 2.5 11.5385 2.10192 10.426ZM17.4808 15.213H22.9038C22.7089 15.7751 22.3431 16.2629 21.8573 16.6087C21.3714 16.9546 20.7895 17.1413 20.1923 17.1431C19.5951 17.1413 19.0132 16.9546 18.5273 16.6087C18.0415 16.2629 17.6757 15.7751 17.4808 15.213Z" fill="#B8DDFF"/>
</svg>
