<svg width="43" height="42" viewBox="0 0 43 42" fill="none" xmlns="http://www.w3.org/2000/svg">
<path d="M21.9391 0C10.3527 0 0.949219 9.40345 0.949219 20.9898C0.949219 32.5762 10.3527 41.9797 21.9391 41.9797C33.5255 41.9797 42.9289 32.5762 42.9289 20.9898C42.9289 9.40345 33.5255 0 21.9391 0ZM31.6784 14.2731C31.3635 17.5895 29.9992 25.6496 29.3065 29.3648C29.0126 30.939 28.4249 31.4638 27.8792 31.5268C26.6618 31.6317 25.7382 30.7291 24.5628 29.9525C22.7157 28.7351 21.6662 27.9795 19.8821 26.804C17.8041 25.4397 19.1474 24.6841 20.3438 23.4667C20.6587 23.1518 26.0321 18.2612 26.137 17.8204C26.1516 17.7536 26.1497 17.6843 26.1314 17.6185C26.1131 17.5526 26.079 17.4922 26.0321 17.4426C25.9061 17.3376 25.7382 17.3796 25.5913 17.4006C25.4024 17.4426 22.4638 19.3946 16.7336 23.2568C15.894 23.8235 15.1384 24.1173 14.4667 24.0963C13.711 24.0754 12.2837 23.6765 11.2133 23.3197C9.89089 22.8999 8.86239 22.669 8.94635 21.9344C8.98833 21.5566 9.51308 21.1788 10.4996 20.7799C16.6286 18.1142 20.7007 16.3511 22.7367 15.5115C28.5719 13.0767 29.7683 12.6569 30.5659 12.6569C30.7338 12.6569 31.1326 12.6989 31.3845 12.9088C31.5944 13.0767 31.6574 13.3076 31.6784 13.4755C31.6574 13.6014 31.6993 13.9792 31.6784 14.2731Z" fill="#414B54"/>
</svg>
