<svg width="29" height="29" viewBox="0 0 29 29" fill="none" xmlns="http://www.w3.org/2000/svg">
<path d="M14.3819 14.335C12.4578 14.335 10.8107 13.6499 9.44054 12.2798C8.07037 10.9096 7.38529 9.26248 7.38529 7.33841C7.38529 5.41434 8.07037 3.76722 9.44054 2.39705C10.8107 1.02688 12.4578 0.341797 14.3819 0.341797C16.306 0.341797 17.9531 1.02688 19.3233 2.39705C20.6934 3.76722 21.3785 5.41434 21.3785 7.33841C21.3785 9.26248 20.6934 10.9096 19.3233 12.2798C17.9531 13.6499 16.306 14.335 14.3819 14.335ZM0.388672 28.3283V23.4306C0.388672 22.4394 0.644049 21.5281 1.1548 20.6967C1.66555 19.8653 2.34306 19.2315 3.18732 18.7954C4.99478 17.8916 6.83139 17.2136 8.69715 16.7611C10.5629 16.3087 12.4578 16.083 14.3819 16.0842C16.306 16.0842 18.2009 16.3104 20.0667 16.7629C21.9324 17.2153 23.769 17.8928 25.5765 18.7954C26.4219 19.2327 27.1 19.867 27.6108 20.6985C28.1215 21.5299 28.3763 22.4406 28.3751 23.4306V28.3283H0.388672Z" fill="#B8DDFF"/>
</svg>
