<svg width="12" height="23" viewBox="0 0 12 23" fill="none" xmlns="http://www.w3.org/2000/svg"><path d="M6.898.172v3.574H5.141V.172h1.757zm-.21 19.137v3.128H4.94V19.31h1.747zm2.343-3.704c0-.468-.105-.89-.316-1.265-.211-.375-.559-.719-1.043-1.031-.484-.313-1.133-.602-1.945-.868-.985-.304-1.836-.675-2.555-1.113-.711-.437-1.262-.98-1.652-1.629-.383-.648-.575-1.433-.575-2.355 0-.961.207-1.79.621-2.485.414-.695 1-1.23 1.758-1.605s1.649-.563 2.672-.563c.797 0 1.508.122 2.133.364A4.029 4.029 0 019.71 4.109c.437.47.77 1.043.996 1.723.234.68.352 1.465.352 2.356H8.902c0-.524-.062-1.004-.187-1.442a3.297 3.297 0 00-.563-1.137 2.486 2.486 0 00-.914-.75c-.36-.18-.773-.27-1.242-.27-.656 0-1.2.114-1.629.34a2.143 2.143 0 00-.937.962c-.203.406-.305.879-.305 1.418 0 .5.102.937.305 1.312s.547.715 1.03 1.02c.493.296 1.169.59 2.028.879 1.008.32 1.864.699 2.567 1.136.703.43 1.238.961 1.605 1.594.367.625.55 1.402.55 2.332 0 1.008-.226 1.86-.679 2.555-.453.687-1.09 1.21-1.91 1.57-.82.36-1.781.54-2.883.54a7.32 7.32 0 01-1.968-.27 5.03 5.03 0 01-1.758-.88c-.524-.413-.942-.956-1.254-1.628-.313-.68-.469-1.512-.469-2.496h2.18c0 .664.094 1.214.281 1.652.195.43.453.773.773 1.031.32.25.672.43 1.055.54.39.1.777.152 1.16.152.703 0 1.297-.11 1.782-.328.492-.227.867-.547 1.125-.961.257-.415.386-.899.386-1.454z" fill="#B8DDFF"/></svg>