<svg width="29" height="27" viewBox="0 0 29 27" fill="none" xmlns="http://www.w3.org/2000/svg"><path d="M14.382.08c-1.934 0-3.743.357-5.427 1.07-1.706.692-3.19 1.637-4.454 2.837a13.277 13.277 0 00-2.986 4.231c-.75 1.6-1.126 3.318-1.126 5.155 0 1.838.375 3.556 1.126 5.156a13.277 13.277 0 002.986 4.231c1.263 1.2 2.748 2.145 4.454 2.837 1.684.713 3.493 1.07 5.427 1.07 1.934 0 3.743-.357 5.426-1.07 1.707-.692 3.192-1.637 4.454-2.837a13.277 13.277 0 002.987-4.231c.75-1.6 1.126-3.318 1.126-5.156 0-1.837-.375-3.555-1.126-5.155a13.277 13.277 0 00-2.986-4.231C23 2.787 21.514 1.842 19.807 1.15 18.125.437 16.316.08 14.382.08zm-1.4 23.831a11.527 11.527 0 01-3.856-1.167 11.324 11.324 0 01-3.106-2.319A10.512 10.512 0 013.938 17.2a9.758 9.758 0 01-.444-6.193l6.69 6.355v1.33c0 .735.273 1.362.819 1.88.546.52 1.206.779 1.98.779v2.561zm9.66-3.372a2.626 2.626 0 00-1.008-1.33 2.799 2.799 0 00-1.655-.518h-1.4v-3.988c0-.368-.136-.681-.409-.94a1.385 1.385 0 00-.99-.39H8.785v-2.658h2.798c.387 0 .717-.13.99-.39.273-.259.41-.572.41-.94V6.727h2.798c.774 0 1.434-.26 1.98-.779.546-.518.819-1.145.819-1.88v-.551c1.024.41 1.968.94 2.833 1.588a11.303 11.303 0 013.652 5.09 9.911 9.911 0 01.511 3.178 9.814 9.814 0 01-.785 3.907 10.858 10.858 0 01-2.15 3.259z" fill="#B8DDFF"/></svg>