<svg width="63" height="48" viewBox="0 0 63 48" fill="none" xmlns="http://www.w3.org/2000/svg"><path d="M1.594 22V6.536h10.397v3.167H5.198v2.905h6.421v2.993H5.2v3.21h7.185V22H1.594zm27.704-7.775c0 1.354-.255 2.526-.764 3.516a7.038 7.038 0 01-1.988 2.424 8.437 8.437 0 01-2.774 1.398 11.547 11.547 0 01-3.145.437h-5.766V6.536h5.591c1.093 0 2.17.132 3.233.394 1.063.247 2.01.67 2.84 1.266.83.583 1.5 1.37 2.009 2.36.51.99.764 2.213.764 3.669zm-3.888 0c0-.874-.145-1.595-.436-2.163-.277-.582-.656-1.04-1.136-1.376a4.33 4.33 0 00-1.616-.742 7.807 7.807 0 00-1.857-.219H18.51v9.042h1.769c.67 0 1.31-.072 1.922-.218a4.596 4.596 0 001.638-.764c.48-.35.859-.816 1.136-1.398.29-.583.436-1.303.436-2.162zm19.47 1.943c0 .932-.16 1.784-.48 2.556a5.539 5.539 0 01-1.333 1.965c-.582.54-1.288.962-2.118 1.267-.816.306-1.726.459-2.73.459-1.02 0-1.937-.153-2.753-.459-.815-.305-1.507-.728-2.075-1.267a5.68 5.68 0 01-1.31-1.965c-.306-.772-.459-1.624-.459-2.556V6.536h3.713v9.327c0 .422.051.822.153 1.2.117.38.284.722.503 1.027.233.292.531.525.895.7.379.174.83.261 1.354.261.524 0 .968-.087 1.332-.262.38-.174.685-.407.918-.699.233-.305.4-.648.502-1.026.102-.379.153-.78.153-1.201V6.536h3.735v9.632zM16.201 36.892a7.48 7.48 0 01-2.533 1.879c-1.005.451-2.162.677-3.473.677-1.194 0-2.3-.197-3.32-.59a7.886 7.886 0 01-2.62-1.66A7.859 7.859 0 012.506 34.6c-.422-1.005-.633-2.111-.633-3.32 0-1.238.21-2.359.633-3.363a7.494 7.494 0 011.791-2.556 7.796 7.796 0 012.665-1.638c1.019-.379 2.118-.568 3.298-.568 1.092 0 2.162.197 3.21.59 1.063.378 1.922.94 2.578 1.682l-2.534 2.533a3.136 3.136 0 00-1.376-1.07 4.563 4.563 0 00-1.747-.35c-.656 0-1.26.124-1.813.372a4.125 4.125 0 00-1.398.983 4.505 4.505 0 00-.917 1.507 5.192 5.192 0 00-.328 1.878c0 .699.11 1.34.328 1.922.218.583.517 1.085.895 1.507.393.408.86.728 1.398.961a4.41 4.41 0 001.77.35c.742 0 1.39-.146 1.943-.437a3.77 3.77 0 001.332-1.136l2.6 2.446zm11.829 2.14l-1.201-3.035h-5.985l-1.136 3.036h-4.062l6.487-15.464h3.625l6.422 15.464h-4.15zm-4.15-11.335l-1.966 5.308h3.888l-1.922-5.308zm14.895-.939v12.275H35.04V26.758h-4.368v-3.189h12.47v3.189h-4.367zm5.469 12.275v-2.04l4.021-3.642c.253-.243.457-.49.612-.743a1.58 1.58 0 00.233-.845c0-.37-.117-.666-.35-.89-.233-.232-.543-.349-.932-.349-.408 0-.743.146-1.005.437-.253.282-.403.656-.452 1.122l-2.346-.32c.059-.525.2-.991.423-1.4.233-.407.524-.752.874-1.034.35-.29.748-.51 1.195-.655a4.445 4.445 0 011.442-.233c.476 0 .937.063 1.384.19.447.125.845.32 1.195.582.35.262.626.592.83.99.214.399.32.865.32 1.4 0 .368-.048.703-.145 1.005a3.21 3.21 0 01-.408.816 4.47 4.47 0 01-.582.713 21.38 21.38 0 01-.67.641l-2.39 2.128h4.21v2.127h-7.46zm15.931-2.01v2.01h-2.287v-2.01h-4.852v-2.055l4.196-6.25h2.929v6.323h1.428v1.981h-1.414zm-2.272-5.8h-.044l-2.448 3.818h2.492v-3.817z" fill="#414B54"/></svg>