<svg width="30" height="24" viewBox="0 0 30 24" fill="none" xmlns="http://www.w3.org/2000/svg"><path d="M29.774 6.007v13.516a4.22 4.22 0 01-1.2 2.94 4.462 4.462 0 01-2.949 1.338l-.258.007H4.797a4.477 4.477 0 01-3.025-1.167 4.235 4.235 0 01-1.376-2.866l-.007-.252V6.007l13.877 8.992.17.095a1.506 1.506 0 001.29 0l.171-.095 13.877-8.992z" fill="#B8DDFF"/><path d="M25.369.959a4.43 4.43 0 013.754 2.038l-14.039 9.097-14.04-9.097a4.348 4.348 0 011.477-1.422A4.497 4.497 0 014.504.969l.295-.01h20.57z" fill="#B8DDFF"/></svg>