<svg width="43" height="43" viewBox="0 0 43 43" fill="none" xmlns="http://www.w3.org/2000/svg"><path d="M42.5 12.773a15.175 15.175 0 00-.976-5.157 10.727 10.727 0 00-6.138-6.128A15.422 15.422 0 0030.29.511c-2.242-.1-2.953-.128-8.646-.128-5.693 0-6.423 0-8.649.128a15.422 15.422 0 00-5.093.977 10.741 10.741 0 00-6.138 6.128 15.23 15.23 0 00-.977 5.085c-.1 2.241-.13 2.951-.13 8.634 0 5.684 0 6.41.13 8.635.035 1.74.363 3.458.977 5.09a10.727 10.727 0 006.14 6.125c1.626.636 3.348.99 5.094 1.047 2.244.1 2.955.13 8.648.13s6.422 0 8.649-.13a15.385 15.385 0 005.096-.975 10.759 10.759 0 006.138-6.128c.613-1.629.941-3.346.976-5.09.1-2.238.13-2.948.13-8.634-.004-5.683-.004-6.405-.134-8.632zm-20.87 19.31c-5.954 0-10.777-4.815-10.777-10.76 0-5.943 4.823-10.758 10.777-10.758 2.858 0 5.6 1.133 7.62 3.151a10.75 10.75 0 010 15.216 10.786 10.786 0 01-7.62 3.15zm11.206-19.407a2.514 2.514 0 01-2.323-1.549 2.503 2.503 0 01.545-2.733 2.513 2.513 0 014.288 1.773 2.509 2.509 0 01-2.51 2.509z" fill="#414B54"/><path d="M21.63 28.313c3.866 0 7-3.13 7-6.99 0-3.86-3.134-6.988-7-6.988s-7 3.129-7 6.989 3.133 6.989 7 6.989z" fill="#414B54"/></svg>