<svg width="29" height="36" viewBox="0 0 29 36" fill="none" xmlns="http://www.w3.org/2000/svg"><path fill-rule="evenodd" clip-rule="evenodd" d="M28.375 13.744c0 11.493-13.993 22.101-13.993 22.101S.389 25.237.389 13.745C.389 6.42 6.654.482 14.382.482c7.728 0 13.993 5.938 13.993 13.261zm-11.85 5.163a5.738 5.738 0 01-2.143.414 5.68 5.68 0 01-3.957-1.593 5.364 5.364 0 01-1.64-3.847c0-1.443.59-2.827 1.64-3.847a5.68 5.68 0 013.957-1.594c.736 0 1.463.141 2.142.415a5.61 5.61 0 011.816 1.179 5.44 5.44 0 011.214 1.765 5.308 5.308 0 010 4.164 5.433 5.433 0 01-1.214 1.765 5.611 5.611 0 01-1.816 1.179z" fill="#B8DDFF"/></svg>