<svg width="25" height="20" viewBox="0 0 25 20" fill="none" xmlns="http://www.w3.org/2000/svg"><path d="M5.266 0l-.949 1.69L0 9.215v.255c0 2.64 2.157 4.787 4.808 4.787 2.65 0 4.807-2.148 4.807-4.787v-.255L5.567 2.158l4.054 1.514c0 .018-.006.034-.006.052 0 1.247.807 2.3 1.924 2.696v11.665H7.692V20h5.77V6.42c.476-.17.899-.462 1.226-.846L19.22 7.33l-3.836 6.686v.255c0 2.639 2.156 4.772 4.807 4.772 2.651 0 4.808-2.133 4.808-4.772v-.255L20.192 5.64 15.38 3.784c0-.02.006-.039.006-.06A2.882 2.882 0 0012.5.852a2.876 2.876 0 00-2.193 1.03L5.267 0zM12.5 2.767a.964.964 0 01.92.957.956.956 0 01-.92.958.964.964 0 01-.92-.958.956.956 0 01.92-.957zm-7.692 1.93l2.19 3.814h-4.38l2.19-3.814zm15.384 4.801l2.181 3.8h-4.361l2.18-3.8zm-18.09.928h5.411a2.867 2.867 0 01-1.047 1.385 2.886 2.886 0 01-1.658.53 2.876 2.876 0 01-2.706-1.915zm15.379 4.787h5.423a2.866 2.866 0 01-1.047 1.396 2.886 2.886 0 01-1.665.534 2.886 2.886 0 01-1.665-.534 2.866 2.866 0 01-1.046-1.396z" fill="#B8DDFF"/></svg>