<svg width="43" height="42" viewBox="0 0 43 42" fill="none" xmlns="http://www.w3.org/2000/svg"><path d="M21.94 0C10.352 0 .95 9.403.95 20.99c0 11.586 9.403 20.99 20.99 20.99 11.585 0 20.989-9.404 20.989-20.99C42.929 9.403 33.525 0 21.939 0zm9.738 14.273C31.363 17.59 30 25.65 29.306 29.365c-.293 1.574-.881 2.099-1.427 2.162-1.217.105-2.14-.798-3.316-1.575-1.847-1.217-2.897-1.973-4.68-3.148-2.079-1.364-.736-2.12.46-3.337.316-.315 5.69-5.206 5.794-5.647a.42.42 0 00-.105-.377c-.126-.105-.294-.063-.44-.042-.19.042-3.128 1.994-8.858 5.856-.84.566-1.596.86-2.267.84-.756-.022-2.183-.42-3.254-.777-1.322-.42-2.35-.651-2.267-1.386.042-.377.567-.755 1.554-1.154 6.129-2.666 10.2-4.429 12.237-5.269 5.835-2.434 7.031-2.854 7.829-2.854.168 0 .567.042.819.252.21.168.272.399.293.566-.02.126.021.504 0 .798z" fill="#414B54"/></svg>