<svg width="29" height="29" viewBox="0 0 29 29" fill="none" xmlns="http://www.w3.org/2000/svg"><path d="M14.382 14.335c-1.924 0-3.571-.685-4.941-2.055-1.37-1.37-2.056-3.018-2.056-4.942 0-1.924.685-3.57 2.056-4.94C10.81 1.026 12.458.341 14.38.341c1.925 0 3.572.685 4.942 2.055s2.055 3.017 2.055 4.941-.685 3.572-2.055 4.942-3.017 2.055-4.941 2.055zM.389 28.328v-4.897c0-.992.255-1.903.766-2.734a5.096 5.096 0 012.032-1.902 26.003 26.003 0 015.51-2.034 23.975 23.975 0 015.685-.677c1.924 0 3.819.226 5.685.679a26.058 26.058 0 015.51 2.032 5.105 5.105 0 012.034 1.903 5.12 5.12 0 01.764 2.733v4.897H.39z" fill="#B8DDFF"/></svg>